<svg width="680" height="600" viewBox="0 0 680 600" fill="none" xmlns="http://www.w3.org/2000/svg">
<g clip-path="url(#clip0_1094_362)">
<mask id="mask0_1094_362" style="mask-type:luminance" maskUnits="userSpaceOnUse" x="0" y="0" width="680" height="600">
<path d="M680 0H0V600H680V0Z" fill="white"/>
</mask>
<g mask="url(#mask0_1094_362)">
<mask id="mask1_1094_362" style="mask-type:luminance" maskUnits="userSpaceOnUse" x="0" y="0" width="680" height="600">
<path d="M680 0H0V600H680V0Z" fill="white"/>
</mask>
<g mask="url(#mask1_1094_362)">
<g opacity="0.3">
<path d="M1011.69 728.64H-339.69V-55.4702H1011.69V728.64ZM-337.95 727H1010V-53.8502H-337.95V727Z" fill="url(#paint0_radial_1094_362)"/>
<path d="M1010.84 570.52H-338.801V572.13H1010.84V570.52Z" fill="url(#paint1_radial_1094_362)"/>
<path d="M1010.84 531.4H-338.801V533H1010.84V531.4Z" fill="url(#paint2_radial_1094_362)"/>
<path d="M1010.84 492.28H-338.801V493.89H1010.84V492.28Z" fill="url(#paint3_radial_1094_362)"/>
<path d="M1010.84 453.16H-338.801V454.77H1010.84V453.16Z" fill="url(#paint4_radial_1094_362)"/>
<path d="M1010.84 414H-338.801V415.61H1010.84V414Z" fill="url(#paint5_radial_1094_362)"/>
<path d="M1010.84 374.92H-338.801V376.53H1010.84V374.92Z" fill="url(#paint6_radial_1094_362)"/>
<path d="M1010.84 335.8H-338.801V337.41H1010.84V335.8Z" fill="url(#paint7_radial_1094_362)"/>
<path d="M1010.84 296.65H-338.801V298.26H1010.84V296.65Z" fill="url(#paint8_radial_1094_362)"/>
<path d="M1010.84 257.53H-338.801V259.14H1010.84V257.53Z" fill="url(#paint9_radial_1094_362)"/>
<path d="M1010.84 218.41H-338.801V220H1010.84V218.41Z" fill="url(#paint10_radial_1094_362)"/>
<path d="M1010.84 179.29H-338.801V180.9H1010.84V179.29Z" fill="url(#paint11_radial_1094_362)"/>
<path d="M1010.84 140.17H-338.801V141.78H1010.84V140.17Z" fill="url(#paint12_radial_1094_362)"/>
<path d="M1010.84 101H-338.801V102.62H1010.84V101Z" fill="url(#paint13_radial_1094_362)"/>
<path d="M1010.84 61.8896H-338.801V63.5096H1010.84V61.8896Z" fill="url(#paint14_radial_1094_362)"/>
<path d="M1010.84 22.77H-338.801V24.39H1010.84V22.77Z" fill="url(#paint15_radial_1094_362)"/>
<path d="M643.62 -54.6401H641.88V727.85H643.62V-54.6401Z" fill="url(#paint16_radial_1094_362)"/>
<path d="M602.71 -54.6401H601V727.85H602.74L602.71 -54.6401Z" fill="url(#paint17_radial_1094_362)"/>
<path d="M561.8 -54.6401H560.06V727.85H561.8V-54.6401Z" fill="url(#paint18_radial_1094_362)"/>
<path d="M520.92 -54.6401H519.18V727.85H520.92V-54.6401Z" fill="url(#paint19_radial_1094_362)"/>
<path d="M480 -54.6401H478.26V727.85H480V-54.6401Z" fill="url(#paint20_radial_1094_362)"/>
<path d="M439.099 -54.6401H437.359V727.85H439.099V-54.6401Z" fill="url(#paint21_radial_1094_362)"/>
<path d="M398.219 -54.6401H396.479V727.85H398.219V-54.6401Z" fill="url(#paint22_radial_1094_362)"/>
<path d="M357.309 -54.6401H355.569V727.85H357.309V-54.6401Z" fill="url(#paint23_radial_1094_362)"/>
<path d="M316.429 -54.6401H314.689V727.85H316.429V-54.6401Z" fill="url(#paint24_radial_1094_362)"/>
<path d="M275.519 -54.6401H273.779V727.85H275.519V-54.6401Z" fill="url(#paint25_radial_1094_362)"/>
<path d="M234.609 -54.6401H232.869V727.85H234.609V-54.6401Z" fill="url(#paint26_radial_1094_362)"/>
<path d="M193.73 -54.6401H192V727.85H193.74L193.73 -54.6401Z" fill="url(#paint27_radial_1094_362)"/>
<path d="M152.82 -54.6401H151.08V727.85H152.82V-54.6401Z" fill="url(#paint28_radial_1094_362)"/>
<path d="M111.939 -54.6401H110.199V727.85H111.939V-54.6401Z" fill="url(#paint29_radial_1094_362)"/>
<path d="M71 -54.6401H69.29V727.85H71V-54.6401Z" fill="url(#paint30_radial_1094_362)"/>
<path d="M30.1199 -54.6401H28.3799V727.85H30.1199V-54.6401Z" fill="url(#paint31_radial_1094_362)"/>
</g>
</g>
</g>
</g>
<defs>
<radialGradient id="paint0_radial_1094_362" cx="0" cy="0" r="1" gradientUnits="userSpaceOnUse" gradientTransform="translate(360.94 386.08) scale(319.12 338.267)">
<stop stop-color="#026043"/>
<stop offset="1" stop-color="#026043" stop-opacity="0"/>
</radialGradient>
<radialGradient id="paint1_radial_1094_362" cx="0" cy="0" r="1" gradientUnits="userSpaceOnUse" gradientTransform="translate(361.3 286.273) scale(328.72 304.424)">
<stop stop-color="#026043"/>
<stop offset="1" stop-color="#026043" stop-opacity="0"/>
</radialGradient>
<radialGradient id="paint2_radial_1094_362" cx="0" cy="0" r="1" gradientUnits="userSpaceOnUse" gradientTransform="translate(361.3 287.971) scale(328.72 304.43)">
<stop stop-color="#026043"/>
<stop offset="1" stop-color="#026043" stop-opacity="0"/>
</radialGradient>
<radialGradient id="paint3_radial_1094_362" cx="0" cy="0" r="1" gradientUnits="userSpaceOnUse" gradientTransform="translate(361.3 289.134) scale(328.72 304.436)">
<stop stop-color="#026043"/>
<stop offset="1" stop-color="#026043" stop-opacity="0"/>
</radialGradient>
<radialGradient id="paint4_radial_1094_362" cx="0" cy="0" r="1" gradientUnits="userSpaceOnUse" gradientTransform="translate(361.3 289.12) scale(328.72 304.424)">
<stop stop-color="#026043"/>
<stop offset="1" stop-color="#026043" stop-opacity="0"/>
</radialGradient>
<radialGradient id="paint5_radial_1094_362" cx="0" cy="0" r="1" gradientUnits="userSpaceOnUse" gradientTransform="translate(361.3 287.935) scale(328.72 304.434)">
<stop stop-color="#026043"/>
<stop offset="1" stop-color="#026043" stop-opacity="0"/>
</radialGradient>
<radialGradient id="paint6_radial_1094_362" cx="0" cy="0" r="1" gradientUnits="userSpaceOnUse" gradientTransform="translate(361.3 287.915) scale(328.72 304.434)">
<stop stop-color="#026043"/>
<stop offset="1" stop-color="#026043" stop-opacity="0"/>
</radialGradient>
<radialGradient id="paint7_radial_1094_362" cx="0" cy="0" r="1" gradientUnits="userSpaceOnUse" gradientTransform="translate(361.3 287.903) scale(328.72 304.446)">
<stop stop-color="#026043"/>
<stop offset="1" stop-color="#026043" stop-opacity="0"/>
</radialGradient>
<radialGradient id="paint8_radial_1094_362" cx="0" cy="0" r="1" gradientUnits="userSpaceOnUse" gradientTransform="translate(361.3 287.893) scale(328.72 304.446)">
<stop stop-color="#026043"/>
<stop offset="1" stop-color="#026043" stop-opacity="0"/>
</radialGradient>
<radialGradient id="paint9_radial_1094_362" cx="0" cy="0" r="1" gradientUnits="userSpaceOnUse" gradientTransform="translate(361.3 289.058) scale(328.72 304.436)">
<stop stop-color="#026043"/>
<stop offset="1" stop-color="#026043" stop-opacity="0"/>
</radialGradient>
<radialGradient id="paint10_radial_1094_362" cx="0" cy="0" r="1" gradientUnits="userSpaceOnUse" gradientTransform="translate(361.3 285.933) scale(328.72 304.438)">
<stop stop-color="#026043"/>
<stop offset="1" stop-color="#026043" stop-opacity="0"/>
</radialGradient>
<radialGradient id="paint11_radial_1094_362" cx="0" cy="0" r="1" gradientUnits="userSpaceOnUse" gradientTransform="translate(361.3 285.913) scale(328.72 304.44)">
<stop stop-color="#026043"/>
<stop offset="1" stop-color="#026043" stop-opacity="0"/>
</radialGradient>
<radialGradient id="paint12_radial_1094_362" cx="0" cy="0" r="1" gradientUnits="userSpaceOnUse" gradientTransform="translate(361.3 287.843) scale(328.72 304.44)">
<stop stop-color="#026043"/>
<stop offset="1" stop-color="#026043" stop-opacity="0"/>
</radialGradient>
<radialGradient id="paint13_radial_1094_362" cx="0" cy="0" r="1" gradientUnits="userSpaceOnUse" gradientTransform="translate(361.3 285.894) scale(328.72 304.442)">
<stop stop-color="#026043"/>
<stop offset="1" stop-color="#026043" stop-opacity="0"/>
</radialGradient>
<radialGradient id="paint14_radial_1094_362" cx="0" cy="0" r="1" gradientUnits="userSpaceOnUse" gradientTransform="translate(361.3 285.873) scale(328.72 304.441)">
<stop stop-color="#026043"/>
<stop offset="1" stop-color="#026043" stop-opacity="0"/>
</radialGradient>
<radialGradient id="paint15_radial_1094_362" cx="0" cy="0" r="1" gradientUnits="userSpaceOnUse" gradientTransform="translate(361.3 286.823) scale(328.72 304.44)">
<stop stop-color="#026043"/>
<stop offset="1" stop-color="#026043" stop-opacity="0"/>
</radialGradient>
<radialGradient id="paint16_radial_1094_362" cx="0" cy="0" r="1" gradientUnits="userSpaceOnUse" gradientTransform="translate(360.716 287.176) scale(328.726 304.54)">
<stop stop-color="#026043"/>
<stop offset="1" stop-color="#026043" stop-opacity="0"/>
</radialGradient>
<radialGradient id="paint17_radial_1094_362" cx="0" cy="0" r="1" gradientUnits="userSpaceOnUse" gradientTransform="translate(360.716 287.176) scale(328.726 304.54)">
<stop stop-color="#026043"/>
<stop offset="1" stop-color="#026043" stop-opacity="0"/>
</radialGradient>
<radialGradient id="paint18_radial_1094_362" cx="0" cy="0" r="1" gradientUnits="userSpaceOnUse" gradientTransform="translate(360.715 287.176) scale(328.726 304.54)">
<stop stop-color="#026043"/>
<stop offset="1" stop-color="#026043" stop-opacity="0"/>
</radialGradient>
<radialGradient id="paint19_radial_1094_362" cx="0" cy="0" r="1" gradientUnits="userSpaceOnUse" gradientTransform="translate(361.141 287.176) scale(328.706 304.54)">
<stop stop-color="#026043"/>
<stop offset="1" stop-color="#026043" stop-opacity="0"/>
</radialGradient>
<radialGradient id="paint20_radial_1094_362" cx="0" cy="0" r="1" gradientUnits="userSpaceOnUse" gradientTransform="translate(360.714 287.176) scale(328.726 304.54)">
<stop stop-color="#026043"/>
<stop offset="1" stop-color="#026043" stop-opacity="0"/>
</radialGradient>
<radialGradient id="paint21_radial_1094_362" cx="0" cy="0" r="1" gradientUnits="userSpaceOnUse" gradientTransform="translate(360.711 287.176) scale(328.738 304.54)">
<stop stop-color="#026043"/>
<stop offset="1" stop-color="#026043" stop-opacity="0"/>
</radialGradient>
<radialGradient id="paint22_radial_1094_362" cx="0" cy="0" r="1" gradientUnits="userSpaceOnUse" gradientTransform="translate(360.714 287.176) scale(328.726 304.54)">
<stop stop-color="#026043"/>
<stop offset="1" stop-color="#026043" stop-opacity="0"/>
</radialGradient>
<radialGradient id="paint23_radial_1094_362" cx="0" cy="0" r="1" gradientUnits="userSpaceOnUse" gradientTransform="translate(361.128 287.176) scale(328.706 304.54)">
<stop stop-color="#026043"/>
<stop offset="1" stop-color="#026043" stop-opacity="0"/>
</radialGradient>
<radialGradient id="paint24_radial_1094_362" cx="0" cy="0" r="1" gradientUnits="userSpaceOnUse" gradientTransform="translate(360.97 287.176) scale(328.716 304.54)">
<stop stop-color="#026043"/>
<stop offset="1" stop-color="#026043" stop-opacity="0"/>
</radialGradient>
<radialGradient id="paint25_radial_1094_362" cx="0" cy="0" r="1" gradientUnits="userSpaceOnUse" gradientTransform="translate(360.97 287.176) scale(328.716 304.54)">
<stop stop-color="#026043"/>
<stop offset="1" stop-color="#026043" stop-opacity="0"/>
</radialGradient>
<radialGradient id="paint26_radial_1094_362" cx="0" cy="0" r="1" gradientUnits="userSpaceOnUse" gradientTransform="translate(360.714 287.176) scale(328.732 304.54)">
<stop stop-color="#026043"/>
<stop offset="1" stop-color="#026043" stop-opacity="0"/>
</radialGradient>
<radialGradient id="paint27_radial_1094_362" cx="0" cy="0" r="1" gradientUnits="userSpaceOnUse" gradientTransform="translate(360.725 287.176) scale(328.732 304.54)">
<stop stop-color="#026043"/>
<stop offset="1" stop-color="#026043" stop-opacity="0"/>
</radialGradient>
<radialGradient id="paint28_radial_1094_362" cx="0" cy="0" r="1" gradientUnits="userSpaceOnUse" gradientTransform="translate(360.963 287.176) scale(328.722 304.54)">
<stop stop-color="#026043"/>
<stop offset="1" stop-color="#026043" stop-opacity="0"/>
</radialGradient>
<radialGradient id="paint29_radial_1094_362" cx="0" cy="0" r="1" gradientUnits="userSpaceOnUse" gradientTransform="translate(360.724 287.176) scale(328.732 304.54)">
<stop stop-color="#026043"/>
<stop offset="1" stop-color="#026043" stop-opacity="0"/>
</radialGradient>
<radialGradient id="paint30_radial_1094_362" cx="0" cy="0" r="1" gradientUnits="userSpaceOnUse" gradientTransform="translate(360.723 287.176) scale(328.73 304.54)">
<stop stop-color="#026043"/>
<stop offset="1" stop-color="#026043" stop-opacity="0"/>
</radialGradient>
<radialGradient id="paint31_radial_1094_362" cx="0" cy="0" r="1" gradientUnits="userSpaceOnUse" gradientTransform="translate(360.724 287.176) scale(328.73 304.54)">
<stop stop-color="#026043"/>
<stop offset="1" stop-color="#026043" stop-opacity="0"/>
</radialGradient>
<clipPath id="clip0_1094_362">
<rect width="680" height="600" fill="white"/>
</clipPath>
</defs>
</svg>
