<?xml version="1.0" encoding="utf-8"?>
<!-- Generator: Adobe Illustrator 24.3.0, SVG Export Plug-In . SVG Version: 6.00 Build 0)  -->
<svg version="1.1" id="Layer_1" xmlns="http://www.w3.org/2000/svg" xmlns:xlink="http://www.w3.org/1999/xlink" x="0px" y="0px"
	 viewBox="0 0 939 1341" style="enable-background:new 0 0 939 1341;" xml:space="preserve">
<style type="text/css">
	.st0{opacity:0.5;fill:url(#SVGID_1_);}
</style>
<radialGradient id="SVGID_1_" cx="471.75" cy="670.5" r="796.4977" gradientUnits="userSpaceOnUse">
	<stop  offset="6.356546e-03" style="stop-color:#026043"/>
	<stop  offset="0.7246" style="stop-color:#026043;stop-opacity:0"/>
</radialGradient>
<path class="st0" d="M-442.5,12.5v1316H1386V12.5H-442.5z M1383.7,143.8H888V15.2h495.7V143.8z M445.3,603.5v-63h52.9v63H445.3z
	 M498.2,606.2v63h-52.9v-63H498.2z M442.9,603.5h-53v-63h53V603.5z M442.9,606.2v63h-53v-63H442.9z M387.5,669.2h-52.9v-63h52.9
	V669.2z M387.5,671.9v62.9h-52.9v-62.9H387.5z M389.9,671.9h53v62.9h-53V671.9z M442.9,737.5v63h-53v-63H442.9z M445.3,737.5h52.9
	v63h-52.9V737.5z M445.3,734.8v-62.9h52.9v62.9H445.3z M500.6,671.9h52.9v62.9h-52.9V671.9z M500.6,669.2v-63h52.9v63H500.6z
	 M500.6,603.5v-63h52.9v63H500.6z M500.6,537.8v-63h52.9v63H500.6z M498.2,537.8h-52.9v-63h52.9V537.8z M442.9,537.8h-53v-63h53
	V537.8z M387.5,537.8h-52.9v-63h52.9V537.8z M387.5,540.5v63h-52.9v-63H387.5z M332.2,603.5h-52.9v-63h52.9V603.5z M332.2,606.2v63
	h-52.9v-63H332.2z M332.2,671.9v62.9h-52.9v-62.9H332.2z M332.2,737.5v63h-52.9v-63H332.2z M334.6,737.5h52.9v63h-52.9V737.5z
	 M387.5,803.2v62.9h-52.9v-62.9H387.5z M389.9,803.2h53v62.9h-53V803.2z M445.3,803.2h52.9v62.9h-52.9V803.2z M500.6,803.2h52.9
	v62.9h-52.9V803.2z M500.6,800.5v-63h52.9v63H500.6z M555.9,737.5h53v63h-53V737.5z M555.9,734.8v-62.9h53v62.9H555.9z M555.9,669.2
	v-63h53v63H555.9z M555.9,603.5v-63h53v63H555.9z M555.9,537.8v-63h53v63H555.9z M555.9,472.1v-62.9h53v62.9H555.9z M553.5,472.1
	h-52.9v-62.9h52.9V472.1z M498.2,472.1h-52.9v-62.9h52.9V472.1z M442.9,472.1h-53v-62.9h53V472.1z M387.5,472.1h-52.9v-62.9h52.9
	V472.1z M332.2,472.1h-52.9v-62.9h52.9V472.1z M332.2,474.8v63h-52.9v-63H332.2z M276.9,537.8h-53v-63h53V537.8z M276.9,540.5v63
	h-53v-63H276.9z M276.9,606.2v63h-53v-63H276.9z M276.9,671.9v62.9h-53v-62.9H276.9z M276.9,737.5v63h-53v-63H276.9z M276.9,803.2
	v62.9h-53v-62.9H276.9z M279.3,803.2h52.9v62.9h-52.9V803.2z M332.2,868.8v63h-52.9v-63H332.2z M334.6,868.8h52.9v63h-52.9V868.8z
	 M389.9,868.8h53v63h-53V868.8z M445.3,868.8h52.9v63h-52.9V868.8z M500.6,868.8h52.9v63h-52.9V868.8z M555.9,868.8h53v63h-53V868.8
	z M555.9,866.1v-62.9h53v62.9H555.9z M611.3,803.2h52.9v62.9h-52.9V803.2z M611.3,800.5v-63h52.9v63H611.3z M611.3,734.8v-62.9h52.9
	v62.9H611.3z M611.3,669.2v-63h52.9v63H611.3z M611.3,603.5v-63h52.9v63H611.3z M611.3,537.8v-63h52.9v63H611.3z M611.3,472.1v-62.9
	h52.9v62.9H611.3z M611.3,406.5v-63h52.9v63H611.3z M608.9,406.5h-53v-63h53V406.5z M553.5,406.5h-52.9v-63h52.9V406.5z
	 M498.2,406.5h-52.9v-63h52.9V406.5z M442.9,406.5h-53v-63h53V406.5z M387.5,406.5h-52.9v-63h52.9V406.5z M332.2,406.5h-52.9v-63
	h52.9V406.5z M276.9,406.5h-53v-63h53V406.5z M276.9,409.2v62.9h-53v-62.9H276.9z M221.5,472.1h-52.9v-62.9h52.9V472.1z
	 M221.5,474.8v63h-52.9v-63H221.5z M221.5,540.5v63h-52.9v-63H221.5z M221.5,606.2v63h-52.9v-63H221.5z M221.5,671.9v62.9h-52.9
	v-62.9H221.5z M221.5,737.5v63h-52.9v-63H221.5z M221.5,803.2v62.9h-52.9v-62.9H221.5z M221.5,868.8v63h-52.9v-63H221.5z
	 M223.9,868.8h53v63h-53V868.8z M276.9,934.5v63h-53v-63H276.9z M279.3,934.5h52.9v63h-52.9V934.5z M334.6,934.5h52.9v63h-52.9
	V934.5z M389.9,934.5h53v63h-53V934.5z M445.3,934.5h52.9v63h-52.9V934.5z M500.6,934.5h52.9v63h-52.9V934.5z M555.9,934.5h53v63
	h-53V934.5z M611.3,934.5h52.9v63h-52.9V934.5z M611.3,931.8v-63h52.9v63H611.3z M666.6,868.8h53v63h-53V868.8z M666.6,866.1v-62.9
	h53v62.9H666.6z M666.6,800.5v-63h53v63H666.6z M666.6,734.8v-62.9h53v62.9H666.6z M666.6,669.2v-63h53v63H666.6z M666.6,603.5v-63
	h53v63H666.6z M666.6,537.8v-63h53v63H666.6z M666.6,472.1v-62.9h53v62.9H666.6z M666.6,406.5v-63h53v63H666.6z M666.6,340.8v-62.9
	h53v62.9H666.6z M664.2,340.8h-52.9v-62.9h52.9V340.8z M608.9,340.8h-53v-62.9h53V340.8z M553.5,340.8h-52.9v-62.9h52.9V340.8z
	 M498.2,340.8h-52.9v-62.9h52.9V340.8z M442.9,340.8h-53v-62.9h53V340.8z M387.5,340.8h-52.9v-62.9h52.9V340.8z M332.2,340.8h-52.9
	v-62.9h52.9V340.8z M276.9,340.8h-53v-62.9h53V340.8z M221.5,340.8h-52.9v-62.9h52.9V340.8z M221.5,343.5v63h-52.9v-63H221.5z
	 M166.2,406.5h-53v-63h53V406.5z M166.2,409.2v62.9h-53v-62.9H166.2z M166.2,474.8v63h-53v-63H166.2z M166.2,540.5v63h-53v-63H166.2
	z M166.2,606.2v63h-53v-63H166.2z M166.2,671.9v62.9h-53v-62.9H166.2z M166.2,737.5v63h-53v-63H166.2z M166.2,803.2v62.9h-53v-62.9
	H166.2z M166.2,868.8v63h-53v-63H166.2z M166.2,934.5v63h-53v-63H166.2z M168.6,934.5h52.9v63h-52.9V934.5z M221.5,1000.2v62.9
	h-52.9v-62.9H221.5z M223.9,1000.2h53v62.9h-53V1000.2z M279.3,1000.2h52.9v62.9h-52.9V1000.2z M334.6,1000.2h52.9v62.9h-52.9
	V1000.2z M389.9,1000.2h53v62.9h-53V1000.2z M445.3,1000.2h52.9v62.9h-52.9V1000.2z M500.6,1000.2h52.9v62.9h-52.9V1000.2z
	 M555.9,1000.2h53v62.9h-53V1000.2z M611.3,1000.2h52.9v62.9h-52.9V1000.2z M666.6,1000.2h53v62.9h-53V1000.2z M666.6,997.5v-63h53
	v63H666.6z M722,934.5h52.9v63H722V934.5z M722,931.8v-63h52.9v63H722z M722,866.1v-62.9h52.9v62.9H722z M722,800.5v-63h52.9v63H722
	z M722,734.8v-62.9h52.9v62.9H722z M722,669.2v-63h52.9v63H722z M722,603.5v-63h52.9v63H722z M722,537.8v-63h52.9v63H722z
	 M722,472.1v-62.9h52.9v62.9H722z M722,406.5v-63h52.9v63H722z M722,340.8v-62.9h52.9v62.9H722z M722,275.2v-63h52.9v63H722z
	 M719.6,275.2h-53v-63h53V275.2z M664.2,275.2h-52.9v-63h52.9V275.2z M608.9,275.2h-53v-63h53V275.2z M553.5,275.2h-52.9v-63h52.9
	V275.2z M498.2,275.2h-52.9v-63h52.9V275.2z M442.9,275.2h-53v-63h53V275.2z M387.5,275.2h-52.9v-63h52.9V275.2z M332.2,275.2h-52.9
	v-63h52.9V275.2z M276.9,275.2h-53v-63h53V275.2z M221.5,275.2h-52.9v-63h52.9V275.2z M166.2,275.2h-53v-63h53V275.2z M166.2,277.9
	v62.9h-53v-62.9H166.2z M110.8,340.8H57.9v-62.9h52.9V340.8z M110.8,343.5v63H57.9v-63H110.8z M110.8,409.2v62.9H57.9v-62.9H110.8z
	 M110.8,474.8v63H57.9v-63H110.8z M110.8,540.5v63H57.9v-63H110.8z M110.8,606.2v63H57.9v-63H110.8z M110.8,671.9v62.9H57.9v-62.9
	H110.8z M110.8,737.5v63H57.9v-63H110.8z M110.8,803.2v62.9H57.9v-62.9H110.8z M110.8,868.8v63H57.9v-63H110.8z M110.8,934.5v63
	H57.9v-63H110.8z M110.8,1000.2v62.9H57.9v-62.9H110.8z M113.2,1000.2h53v62.9h-53V1000.2z M166.2,1065.8v63h-53v-63H166.2z
	 M168.6,1065.8h52.9v63h-52.9V1065.8z M223.9,1065.8h53v63h-53V1065.8z M279.3,1065.8h52.9v63h-52.9V1065.8z M334.6,1065.8h52.9v63
	h-52.9V1065.8z M389.9,1065.8h53v63h-53V1065.8z M445.3,1065.8h52.9v63h-52.9V1065.8z M500.6,1065.8h52.9v63h-52.9V1065.8z
	 M555.9,1065.8h53v63h-53V1065.8z M611.3,1065.8h52.9v63h-52.9V1065.8z M666.6,1065.8h53v63h-53V1065.8z M722,1065.8h52.9v63H722
	V1065.8z M722,1063.1v-62.9h52.9v62.9H722z M777.3,1000.2h52.9v62.9h-52.9V1000.2z M777.3,997.5v-63h52.9v63H777.3z M777.3,931.8
	v-63h52.9v63H777.3z M777.3,866.1v-62.9h52.9v62.9H777.3z M777.3,800.5v-63h52.9v63H777.3z M777.3,734.8v-62.9h52.9v62.9H777.3z
	 M777.3,669.2v-63h52.9v63H777.3z M777.3,603.5v-63h52.9v63H777.3z M777.3,537.8v-63h52.9v63H777.3z M777.3,472.1v-62.9h52.9v62.9
	H777.3z M777.3,406.5v-63h52.9v63H777.3z M777.3,340.8v-62.9h52.9v62.9H777.3z M777.3,275.2v-63h52.9v63H777.3z M777.3,209.5v-63
	h52.9v63H777.3z M774.9,209.5H722v-63h52.9V209.5z M719.6,209.5h-53v-63h53V209.5z M664.2,209.5h-52.9v-63h52.9V209.5z M608.9,209.5
	h-53v-63h53V209.5z M553.5,209.5h-52.9v-63h52.9V209.5z M498.2,209.5h-52.9v-63h52.9V209.5z M442.9,209.5h-53v-63h53V209.5z
	 M387.5,209.5h-52.9v-63h52.9V209.5z M332.2,209.5h-52.9v-63h52.9V209.5z M276.9,209.5h-53v-63h53V209.5z M221.5,209.5h-52.9v-63
	h52.9V209.5z M166.2,209.5h-53v-63h53V209.5z M110.8,209.5H57.9v-63h52.9V209.5z M110.8,212.2v63H57.9v-63H110.8z M55.5,275.2H2.6
	v-63h52.9V275.2z M55.5,277.9v62.9H2.6v-62.9H55.5z M55.5,343.5v63H2.6v-63H55.5z M55.5,409.2v62.9H2.6v-62.9H55.5z M55.5,474.8v63
	H2.6v-63H55.5z M55.5,540.5v63H2.6v-63H55.5z M55.5,606.2v63H2.6v-63H55.5z M55.5,671.9v62.9H2.6v-62.9H55.5z M55.5,737.5v63H2.6
	v-63H55.5z M55.5,803.2v62.9H2.6v-62.9H55.5z M55.5,868.8v63H2.6v-63H55.5z M55.5,934.5v63H2.6v-63H55.5z M55.5,1000.2v62.9H2.6
	v-62.9H55.5z M55.5,1065.8v63H2.6v-63H55.5z M57.9,1065.8h52.9v63H57.9V1065.8z M110.8,1131.5v63H57.9v-63H110.8z M113.2,1131.5h53
	v63h-53V1131.5z M168.6,1131.5h52.9v63h-52.9V1131.5z M223.9,1131.5h53v63h-53V1131.5z M279.3,1131.5h52.9v63h-52.9V1131.5z
	 M334.6,1131.5h52.9v63h-52.9V1131.5z M389.9,1131.5h53v63h-53V1131.5z M445.3,1131.5h52.9v63h-52.9V1131.5z M500.6,1131.5h52.9v63
	h-52.9V1131.5z M555.9,1131.5h53v63h-53V1131.5z M611.3,1131.5h52.9v63h-52.9V1131.5z M666.6,1131.5h53v63h-53V1131.5z M722,1131.5
	h52.9v63H722V1131.5z M777.3,1131.5h52.9v63h-52.9V1131.5z M777.3,1128.8v-63h52.9v63H777.3z M832.6,1065.8h53v63h-53V1065.8z
	 M832.6,1063.1v-62.9h53v62.9H832.6z M832.6,997.5v-63h53v63H832.6z M832.6,931.8v-63h53v63H832.6z M832.6,866.1v-62.9h53v62.9
	H832.6z M832.6,800.5v-63h53v63H832.6z M832.6,734.8v-62.9h53v62.9H832.6z M832.6,669.2v-63h53v63H832.6z M832.6,603.5v-63h53v63
	H832.6z M832.6,537.8v-63h53v63H832.6z M832.6,472.1v-62.9h53v62.9H832.6z M832.6,406.5v-63h53v63H832.6z M832.6,340.8v-62.9h53
	v62.9H832.6z M832.6,275.2v-63h53v63H832.6z M832.6,209.5v-63h53v63H832.6z M832.6,143.8V15.2h53v128.6H832.6z M830.2,143.8h-52.9
	V15.2h52.9V143.8z M774.9,143.8H722V15.2h52.9V143.8z M719.6,143.8h-53V15.2h53V143.8z M664.2,143.8h-52.9V15.2h52.9V143.8z
	 M608.9,143.8h-53V15.2h53V143.8z M553.5,143.8h-52.9V15.2h52.9V143.8z M498.2,143.8h-52.9V15.2h52.9V143.8z M442.9,143.8h-53V15.2
	h53V143.8z M387.5,143.8h-52.9V15.2h52.9V143.8z M332.2,143.8h-52.9V15.2h52.9V143.8z M276.9,143.8h-53V15.2h53V143.8z M221.5,143.8
	h-52.9V15.2h52.9V143.8z M166.2,143.8h-53V15.2h53V143.8z M110.8,143.8H57.9V15.2h52.9V143.8z M55.5,143.8H2.6V15.2h52.9V143.8z
	 M55.5,146.5v63H2.6v-63H55.5z M0.2,209.5h-440.3v-63H0.2V209.5z M0.2,212.2v63h-440.3v-63H0.2z M0.2,277.9v62.9h-440.3v-62.9H0.2z
	 M0.2,343.5v63h-440.3v-63H0.2z M0.2,409.2v62.9h-440.3v-62.9H0.2z M0.2,474.8v63h-440.3v-63H0.2z M0.2,540.5v63h-440.3v-63H0.2z
	 M0.2,606.2v63h-440.3v-63H0.2z M0.2,671.9v62.9h-440.3v-62.9H0.2z M0.2,737.5v63h-440.3v-63H0.2z M0.2,803.2v62.9h-440.3v-62.9H0.2
	z M0.2,868.8v63h-440.3v-63H0.2z M0.2,934.5v63h-440.3v-63H0.2z M0.2,1000.2v62.9h-440.3v-62.9H0.2z M0.2,1065.8v63h-440.3v-63H0.2z
	 M0.2,1131.5v63h-440.3v-63H0.2z M2.6,1131.5h52.9v63H2.6V1131.5z M55.5,1197.2v128.6H2.6v-128.6H55.5z M57.9,1197.2h52.9v128.6
	H57.9V1197.2z M113.2,1197.2h53v128.6h-53V1197.2z M168.6,1197.2h52.9v128.6h-52.9V1197.2z M223.9,1197.2h53v128.6h-53V1197.2z
	 M279.3,1197.2h52.9v128.6h-52.9V1197.2z M334.6,1197.2h52.9v128.6h-52.9V1197.2z M389.9,1197.2h53v128.6h-53V1197.2z M445.3,1197.2
	h52.9v128.6h-52.9V1197.2z M500.6,1197.2h52.9v128.6h-52.9V1197.2z M555.9,1197.2h53v128.6h-53V1197.2z M611.3,1197.2h52.9v128.6
	h-52.9V1197.2z M666.6,1197.2h53v128.6h-53V1197.2z M722,1197.2h52.9v128.6H722V1197.2z M777.3,1197.2h52.9v128.6h-52.9V1197.2z
	 M832.6,1197.2h53v128.6h-53V1197.2z M832.6,1194.5v-63h53v63H832.6z M888,1131.5h495.7v63H888V1131.5z M888,1128.8v-63h495.7v63
	H888z M888,1063.1v-62.9h495.7v62.9H888z M888,997.5v-63h495.7v63H888z M888,931.8v-63h495.7v63H888z M888,866.1v-62.9h495.7v62.9
	H888z M888,800.5v-63h495.7v63H888z M888,734.8v-62.9h495.7v62.9H888z M888,669.2v-63h495.7v63H888z M888,603.5v-63h495.7v63H888z
	 M888,537.8v-63h495.7v63H888z M888,472.1v-62.9h495.7v62.9H888z M888,406.5v-63h495.7v63H888z M888,340.8v-62.9h495.7v62.9H888z
	 M888,275.2v-63h495.7v63H888z M888,209.5v-63h495.7v63H888z M0.2,15.2v128.6h-440.3V15.2H0.2z M-440.1,1197.2H0.2v128.6h-440.3
	V1197.2z M888,1325.8v-128.6h495.7v128.6H888z"/>
</svg>
