<svg width="306" height="117" viewBox="0 0 306 117" fill="none" xmlns="http://www.w3.org/2000/svg">
<path d="M52.6999 22.5202C52.9799 17.1202 56.8198 14.1602 62.4198 14.1602C68.4198 14.1602 71.6199 17.5602 71.6199 21.8802C71.6199 25.5202 69.3399 27.7602 67.2199 28.4802V28.6402C70.1799 29.5602 72.1398 31.9602 72.1398 35.9202C72.1398 40.6802 68.7798 44.2002 62.6598 44.2002C56.8998 44.2002 52.5398 41.3202 52.2998 35.2002H57.7399C57.8599 37.7202 59.5399 39.5202 62.5399 39.5202C65.3399 39.5202 66.7798 37.7602 66.7798 35.4402C66.7798 32.1602 64.6999 30.9602 60.5399 30.9602H59.3799V26.3602H60.5399C63.8199 26.3602 66.2199 25.4402 66.2199 22.5602C66.2199 20.2802 64.8198 18.9202 62.2598 18.9202C59.5398 18.9202 58.3798 20.6802 58.1798 22.5202H52.6999ZM76.5651 29.0402C76.5651 20.6002 79.1252 14.2802 87.3652 14.2802C95.6052 14.2802 98.1651 20.6002 98.1651 29.0402C98.1651 37.5602 95.6052 43.9202 87.3652 43.9202C79.1252 43.9202 76.5651 37.5602 76.5651 29.0402ZM92.6452 29.0402C92.6452 24.0402 92.0852 19.4802 87.3652 19.4802C82.6452 19.4802 82.0851 24.0402 82.0851 29.0402C82.0851 34.2402 82.6452 38.7202 87.3652 38.7202C92.0852 38.7202 92.6452 34.2402 92.6452 29.0402ZM111.145 19.5602H116.425V27.3202H123.985V32.2002H116.425V39.9602H111.145V32.2002H103.585V27.3202H111.145V19.5602Z" fill="#026043"/>
<path d="M22.4999 13C13.2197 13 5.66992 20.55 5.66992 29.83C5.66992 39.11 13.2198 46.66 22.4999 46.66C31.7799 46.66 39.3299 39.11 39.3299 29.83C39.3299 20.55 31.78 13 22.4999 13ZM30.3975 40.7001L22.4999 36.9627L14.6023 40.7001L15.7162 32.0342L9.72145 25.6782L18.3073 24.0597L22.4999 16.3939L26.6923 24.0596L35.2784 25.678L29.2835 32.0341L30.3975 40.7001Z" fill="#026043"/>
<path d="M25.0157 26.3669L22.4997 21.7666L19.9837 26.3669L14.8311 27.3381L18.4287 31.1526L17.7602 36.3532L22.4997 34.1103L27.2391 36.3532L26.5706 31.1526L30.1683 27.3381L25.0157 26.3669Z" fill="#CEA030"/>
<path d="M10.7432 51.1094C11.8814 50.9441 12.9715 50.559 13.9632 49.9713V47.2698C12.8332 46.7155 11.7553 46.0486 10.7432 45.2749V51.1094Z" fill="#026043"/>
<path d="M31.0371 49.9713C32.0288 50.559 33.1188 50.9441 34.2571 51.1094V45.2749C33.245 46.0486 32.1671 46.7154 31.0371 47.2698V49.9713Z" fill="#026043"/>
<path d="M16.541 48.3096V56.9999C18.4496 56.7244 20.2046 55.838 21.579 54.4357L22.4996 53.4966L23.4202 54.4357C24.7947 55.8379 26.5496 56.7244 28.4582 56.9999V48.3096C26.5577 48.9201 24.5533 49.2381 22.4996 49.2381C20.446 49.2381 18.4415 48.9201 16.541 48.3096Z" fill="#026043"/>
<path d="M8.96424 75.6262L4.69824 67.4362H7.54224L10.2422 73.1782L12.9242 67.4362H15.7322L11.4842 75.6262V80.0002H8.96424V75.6262ZM21.4696 71.9362C20.2636 71.9362 19.3096 72.7102 19.1116 74.0782H23.8456C23.8096 72.7642 22.7656 71.9362 21.4696 71.9362ZM26.2036 76.8682C25.6636 78.7042 24.0076 80.1622 21.5416 80.1622C18.6436 80.1622 16.5376 78.1462 16.5376 75.0142C16.5376 71.8642 18.5896 69.8662 21.5416 69.8662C24.4216 69.8662 26.4556 71.8282 26.4556 74.7982C26.4556 75.1222 26.4376 75.4462 26.3836 75.7702H19.0936C19.2196 77.2462 20.2276 78.0742 21.4876 78.0742C22.5676 78.0742 23.1616 77.5342 23.4856 76.8682H26.2036ZM27.6469 74.9782C27.6469 71.8642 29.6629 69.8662 32.2009 69.8662C33.8029 69.8662 34.9009 70.6222 35.4949 71.4502V70.0282H38.0329V80.0002H35.4949V78.5422C34.9009 79.4062 33.7669 80.1622 32.1829 80.1622C29.6629 80.1622 27.6469 78.0922 27.6469 74.9782ZM35.4949 75.0142C35.4949 73.1242 34.2349 72.0802 32.8489 72.0802C31.4989 72.0802 30.2209 73.0882 30.2209 74.9782C30.2209 76.8682 31.4989 77.9482 32.8489 77.9482C34.2349 77.9482 35.4949 76.9042 35.4949 75.0142ZM43.0142 75.0322V80.0002H40.4942V70.0282H43.0142V71.5762C43.6442 70.5502 44.6882 69.8842 46.0742 69.8842V72.5302H45.4082C43.9142 72.5302 43.0142 73.1062 43.0142 75.0322ZM55.5115 77.1562C55.5115 78.8662 54.0175 80.1622 51.5875 80.1622C49.0855 80.1622 47.3395 78.7042 47.2315 76.8502H49.7695C49.8595 77.6062 50.5615 78.1822 51.5695 78.1822C52.5595 78.1822 53.0995 77.7322 53.0995 77.1562C53.0995 75.3742 47.4655 76.5082 47.4655 72.8542C47.4655 71.1982 48.9415 69.8662 51.4075 69.8662C53.8195 69.8662 55.2775 71.1802 55.4215 73.1602H53.0095C52.9375 72.3862 52.3255 71.8642 51.3355 71.8642C50.3995 71.8642 49.9135 72.2422 49.9135 72.8182C49.9135 74.6362 55.4395 73.5022 55.5115 77.1562ZM71.4992 75.0142C71.4992 78.1462 69.1952 80.1622 66.2972 80.1622C63.4172 80.1622 61.2392 78.1462 61.2392 75.0142C61.2392 71.8642 63.4892 69.8662 66.3692 69.8662C69.2492 69.8662 71.4992 71.8642 71.4992 75.0142ZM63.7952 75.0142C63.7952 76.9942 64.9472 77.9662 66.2972 77.9662C67.6292 77.9662 68.9072 76.9942 68.9072 75.0142C68.9072 73.0162 67.6652 72.0622 66.3332 72.0622C65.0012 72.0622 63.7952 73.0162 63.7952 75.0142ZM73.6177 80.0002V72.0982H72.4837V70.0282H73.6177V69.5242C73.6177 67.0762 75.0037 65.9422 77.8117 66.0142V68.1382C76.5877 68.1022 76.1737 68.4982 76.1737 69.6142V70.0282H77.9197V72.0982H76.1737V80.0002H73.6177ZM83.2298 73.7002C83.2298 69.9382 85.9838 67.2742 89.6018 67.2742C92.3918 67.2742 94.6598 68.7682 95.5058 71.3422H92.6078C92.0138 70.1362 90.9338 69.5422 89.5838 69.5422C87.3878 69.5422 85.8218 71.1442 85.8218 73.7002C85.8218 76.2382 87.3878 77.8582 89.5838 77.8582C90.9338 77.8582 92.0138 77.2642 92.6078 76.0402H95.5058C94.6598 78.6322 92.3918 80.1082 89.6018 80.1082C85.9838 80.1082 83.2298 77.4622 83.2298 73.7002ZM107.288 75.0142C107.288 78.1462 104.984 80.1622 102.086 80.1622C99.2062 80.1622 97.0282 78.1462 97.0282 75.0142C97.0282 71.8642 99.2782 69.8662 102.158 69.8662C105.038 69.8662 107.288 71.8642 107.288 75.0142ZM99.5842 75.0142C99.5842 76.9942 100.736 77.9662 102.086 77.9662C103.418 77.9662 104.696 76.9942 104.696 75.0142C104.696 73.0162 103.454 72.0622 102.122 72.0622C100.79 72.0622 99.5842 73.0162 99.5842 75.0142ZM123.087 80.0002V74.4922C123.087 72.9082 122.205 72.0802 120.873 72.0802C119.523 72.0802 118.641 72.9082 118.641 74.4922V80.0002H116.121V74.4922C116.121 72.9082 115.239 72.0802 113.907 72.0802C112.539 72.0802 111.657 72.9082 111.657 74.4922V80.0002H109.137V70.0282H111.657V71.2342C112.287 70.4062 113.349 69.8842 114.591 69.8842C116.139 69.8842 117.417 70.5502 118.101 71.7922C118.749 70.6582 120.063 69.8842 121.521 69.8842C123.915 69.8842 125.607 71.3962 125.607 74.1502V80.0002H123.087ZM130.518 71.4862C131.13 70.5682 132.3 69.8662 133.812 69.8662C136.368 69.8662 138.366 71.8642 138.366 74.9782C138.366 78.0922 136.368 80.1622 133.812 80.1622C132.246 80.1622 131.13 79.4422 130.518 78.5782V80.0002H127.998V66.6802H130.518V71.4862ZM135.792 74.9782C135.792 73.0882 134.514 72.0802 133.146 72.0802C131.796 72.0802 130.518 73.1242 130.518 75.0142C130.518 76.9042 131.796 77.9482 133.146 77.9482C134.514 77.9482 135.792 76.8682 135.792 74.9782ZM140.197 80.0002V70.0282H142.717V80.0002H140.197ZM141.475 68.8402C140.575 68.8402 139.927 68.1922 139.927 67.3642C139.927 66.5362 140.575 65.8882 141.475 65.8882C142.357 65.8882 143.023 66.5362 143.023 67.3642C143.023 68.1922 142.357 68.8402 141.475 68.8402ZM152.191 80.0002V74.4922C152.191 72.8902 151.309 72.0262 149.977 72.0262C148.609 72.0262 147.727 72.8902 147.727 74.4922V80.0002H145.207V70.0282H147.727V71.2702C148.375 70.4242 149.455 69.8842 150.733 69.8842C153.055 69.8842 154.711 71.3962 154.711 74.1502V80.0002H152.191ZM161.391 71.9362C160.185 71.9362 159.231 72.7102 159.033 74.0782H163.767C163.731 72.7642 162.687 71.9362 161.391 71.9362ZM166.125 76.8682C165.585 78.7042 163.929 80.1622 161.463 80.1622C158.565 80.1622 156.459 78.1462 156.459 75.0142C156.459 71.8642 158.511 69.8662 161.463 69.8662C164.343 69.8662 166.377 71.8282 166.377 74.7982C166.377 75.1222 166.359 75.4462 166.305 75.7702H159.015C159.141 77.2462 160.149 78.0742 161.409 78.0742C162.489 78.0742 163.083 77.5342 163.407 76.8682H166.125ZM167.569 74.9782C167.569 71.8642 169.585 69.8662 172.141 69.8662C173.455 69.8662 174.715 70.4782 175.399 71.4142V66.6802H177.955V80.0002H175.399V78.5242C174.805 79.4422 173.689 80.1622 172.123 80.1622C169.585 80.1622 167.569 78.0922 167.569 74.9782ZM175.417 75.0142C175.417 73.1242 174.157 72.0802 172.771 72.0802C171.421 72.0802 170.143 73.0882 170.143 74.9782C170.143 76.8682 171.421 77.9482 172.771 77.9482C174.157 77.9482 175.417 76.9042 175.417 75.0142ZM191.995 67.4182V69.4702H187.225V72.6202H191.455V74.6182H187.225V77.9482H191.995V80.0002H184.705V67.4182H191.995ZM199.793 80.0002L197.741 76.9042L195.923 80.0002H193.223L196.481 74.9962L193.187 70.0282H196.031L198.065 73.1062L199.901 70.0282H202.601L199.325 74.9962L202.637 80.0002H199.793ZM206.526 71.4682C207.12 70.6222 208.272 69.8662 209.82 69.8662C212.376 69.8662 214.374 71.8642 214.374 74.9782C214.374 78.0922 212.376 80.1622 209.82 80.1622C208.254 80.1622 207.138 79.3882 206.526 78.5782V84.7522H204.006V70.0282H206.526V71.4682ZM211.8 74.9782C211.8 73.0882 210.522 72.0802 209.154 72.0802C207.804 72.0802 206.526 73.1242 206.526 75.0142C206.526 76.9042 207.804 77.9482 209.154 77.9482C210.522 77.9482 211.8 76.8682 211.8 74.9782ZM220.489 71.9362C219.283 71.9362 218.329 72.7102 218.131 74.0782H222.865C222.829 72.7642 221.785 71.9362 220.489 71.9362ZM225.223 76.8682C224.683 78.7042 223.027 80.1622 220.561 80.1622C217.663 80.1622 215.557 78.1462 215.557 75.0142C215.557 71.8642 217.609 69.8662 220.561 69.8662C223.441 69.8662 225.475 71.8282 225.475 74.7982C225.475 75.1222 225.457 75.4462 225.403 75.7702H218.113C218.239 77.2462 219.247 78.0742 220.507 78.0742C221.587 78.0742 222.181 77.5342 222.505 76.8682H225.223ZM229.834 75.0322V80.0002H227.314V70.0282H229.834V71.5762C230.464 70.5502 231.508 69.8842 232.894 69.8842V72.5302H232.228C230.734 72.5302 229.834 73.1062 229.834 75.0322ZM234.592 80.0002V70.0282H237.112V80.0002H234.592ZM235.87 68.8402C234.97 68.8402 234.322 68.1922 234.322 67.3642C234.322 66.5362 234.97 65.8882 235.87 65.8882C236.752 65.8882 237.418 66.5362 237.418 67.3642C237.418 68.1922 236.752 68.8402 235.87 68.8402ZM243.885 71.9362C242.679 71.9362 241.725 72.7102 241.527 74.0782H246.261C246.225 72.7642 245.181 71.9362 243.885 71.9362ZM248.619 76.8682C248.079 78.7042 246.423 80.1622 243.957 80.1622C241.059 80.1622 238.953 78.1462 238.953 75.0142C238.953 71.8642 241.005 69.8662 243.957 69.8662C246.837 69.8662 248.871 71.8282 248.871 74.7982C248.871 75.1222 248.853 75.4462 248.799 75.7702H241.509C241.635 77.2462 242.643 78.0742 243.903 78.0742C244.983 78.0742 245.577 77.5342 245.901 76.8682H248.619ZM257.695 80.0002V74.4922C257.695 72.8902 256.813 72.0262 255.481 72.0262C254.113 72.0262 253.231 72.8902 253.231 74.4922V80.0002H250.711V70.0282H253.231V71.2702C253.879 70.4242 254.959 69.8842 256.237 69.8842C258.559 69.8842 260.215 71.3962 260.215 74.1502V80.0002H257.695ZM261.963 75.0142C261.963 71.8822 264.015 69.8662 266.895 69.8662C269.379 69.8662 271.053 71.1622 271.593 73.3942H268.875C268.587 72.5482 267.921 72.0082 266.877 72.0082C265.473 72.0082 264.537 73.0702 264.537 75.0142C264.537 76.9582 265.473 78.0022 266.877 78.0022C267.921 78.0022 268.569 77.5342 268.875 76.6342H271.593C271.053 78.7582 269.379 80.1622 266.895 80.1622C264.015 80.1622 261.963 78.1462 261.963 75.0142ZM277.723 71.9362C276.517 71.9362 275.563 72.7102 275.365 74.0782H280.099C280.063 72.7642 279.019 71.9362 277.723 71.9362ZM282.457 76.8682C281.917 78.7042 280.261 80.1622 277.795 80.1622C274.897 80.1622 272.791 78.1462 272.791 75.0142C272.791 71.8642 274.843 69.8662 277.795 69.8662C280.675 69.8662 282.709 71.8282 282.709 74.7982C282.709 75.1222 282.691 75.4462 282.637 75.7702H275.347C275.473 77.2462 276.481 78.0742 277.741 78.0742C278.821 78.0742 279.415 77.5342 279.739 76.8682H282.457Z" fill="black"/>
</svg>
